<svg width="132" height="22" viewBox="0 0 132 22" fill="none" xmlns="http://www.w3.org/2000/svg">
  <rect width="22" height="22"/>
  <rect x="1.09998" y="2.75" width="7.15" height="3.85" rx="1.925" fill="#141F35"/>
  <rect x="8.79999" y="2.75" width="11.55" height="3.85" rx="1.925" fill="#3F7BEF"/>
  <rect x="12.65" y="7.14999" width="11.55" height="3.85" rx="1.925" transform="rotate(90 12.65 7.14999)" fill="#BBC9D9"/>
  <path d="M31.1133,16L28.9941,16L28.9941,7.76953L26.2803,7.76953L26.2803,6.00586L33.8271,6.00586L33.8271,7.76953L31.1133,7.76953L31.1133,16zM38.3662,9.69727C37.9242,9.69727 37.5778,9.83854 37.3271,10.1211C37.0765,10.3991 36.9329,10.7956 36.8965,11.3105L39.8223,11.3105C39.8132,10.7956 39.6787,10.3991 39.4189,10.1211C39.1592,9.83854 38.8083,9.69727 38.3662,9.69727zM38.6602,16.1367C37.4297,16.1367 36.4681,15.7972 35.7754,15.1182C35.0827,14.4391 34.7363,13.4775 34.7363,12.2334C34.7363,10.9528 35.0553,9.96387 35.6934,9.2666C36.3359,8.56478 37.2223,8.21387 38.3525,8.21387C39.4326,8.21387 40.2734,8.52148 40.875,9.13672C41.4766,9.75195 41.7773,10.6019 41.7773,11.6865L41.7773,12.6982L36.8486,12.6982C36.8714,13.2907 37.0469,13.7533 37.375,14.0859C37.7031,14.4186 38.1634,14.585 38.7559,14.585C39.2161,14.585 39.6514,14.5371 40.0615,14.4414C40.4717,14.3457 40.9001,14.193 41.3467,13.9834L41.3467,15.5967C40.9821,15.779 40.5924,15.9134 40.1777,16C39.763,16.0911 39.2572,16.1367 38.6602,16.1367zM48.8047,13.7305C48.8047,14.5143 48.5312,15.1113 47.9844,15.5215C47.4421,15.9316 46.6286,16.1367 45.5439,16.1367C44.988,16.1367 44.514,16.098 44.1221,16.0205C43.7301,15.9476 43.3633,15.8382 43.0215,15.6924L43.0215,13.9697C43.4089,14.152 43.8441,14.3047 44.3271,14.4277C44.8148,14.5508 45.2432,14.6123 45.6123,14.6123C46.3688,14.6123 46.7471,14.3936 46.7471,13.9561C46.7471,13.792 46.6969,13.6598 46.5967,13.5596C46.4964,13.4548 46.3232,13.3385 46.0771,13.2109C45.8311,13.0788 45.5029,12.9261 45.0928,12.7529C44.5049,12.5068 44.0719,12.279 43.7939,12.0693C43.5205,11.8597 43.32,11.6204 43.1924,11.3516C43.0693,11.0781 43.0078,10.7432 43.0078,10.3467C43.0078,9.66764 43.2699,9.14355 43.7939,8.77441C44.3226,8.40072 45.07,8.21387 46.0361,8.21387C46.9567,8.21387 47.8522,8.41439 48.7227,8.81543L48.0938,10.3193C47.7109,10.1553 47.3532,10.0208 47.0205,9.91602C46.6878,9.8112 46.3483,9.75879 46.002,9.75879C45.3867,9.75879 45.0791,9.92513 45.0791,10.2578C45.0791,10.4447 45.1771,10.6064 45.373,10.7432C45.5736,10.8799 46.0088,11.0827 46.6787,11.3516C47.2757,11.5931 47.7132,11.8187 47.9912,12.0283C48.2692,12.238 48.4743,12.4795 48.6064,12.7529C48.7386,13.0264 48.8047,13.3522 48.8047,13.7305zM52.5166,16L50.4316,16L50.4316,5.36328L52.5166,5.36328L52.5166,16zM57.876,9.69727C57.4339,9.69727 57.0876,9.83854 56.8369,10.1211C56.5863,10.3991 56.4427,10.7956 56.4062,11.3105L59.332,11.3105C59.3229,10.7956 59.1885,10.3991 58.9287,10.1211C58.6689,9.83854 58.318,9.69727 57.876,9.69727zM58.1699,16.1367C56.9395,16.1367 55.9779,15.7972 55.2852,15.1182C54.5924,14.4391 54.2461,13.4775 54.2461,12.2334C54.2461,10.9528 54.5651,9.96387 55.2031,9.2666C55.8457,8.56478 56.7321,8.21387 57.8623,8.21387C58.9424,8.21387 59.7832,8.52148 60.3848,9.13672C60.9863,9.75195 61.2871,10.6019 61.2871,11.6865L61.2871,12.6982L56.3584,12.6982C56.3812,13.2907 56.5566,13.7533 56.8848,14.0859C57.2129,14.4186 57.6732,14.585 58.2656,14.585C58.7259,14.585 59.1611,14.5371 59.5713,14.4414C59.9814,14.3457 60.4098,14.193 60.8564,13.9834L60.8564,15.5967C60.4919,15.779 60.1022,15.9134 59.6875,16C59.2728,16.0911 58.7669,16.1367 58.1699,16.1367zM67.248,8.21387C67.5306,8.21387 67.7653,8.23438 67.9521,8.27539L67.7949,10.2305C67.6263,10.1849 67.4212,10.1621 67.1797,10.1621C66.5143,10.1621 65.9948,10.333 65.6211,10.6748C65.252,11.0166 65.0674,11.4951 65.0674,12.1104L65.0674,16L62.9824,16L62.9824,8.35742L64.5615,8.35742L64.8691,9.64258L64.9717,9.64258C65.2087,9.21419 65.5277,8.87012 65.9287,8.61035C66.3343,8.34603 66.7741,8.21387 67.248,8.21387z" fill="#3F7BEF"/>
</svg>