<svg width="181" height="138" viewBox="0 0 181 138" fill="none" xmlns="http://www.w3.org/2000/svg">
<rect width="181" height="138" fill="#F7F7F7"/>
<circle cx="91" cy="71" r="34.25" fill="#D9E5FC" stroke="#3F7BEF" stroke-width="1.5"/>
<rect x="115" y="69" width="3" height="48" transform="rotate(90 115 69)" fill="#3F7BEF"/>
<rect x="90" y="47" width="3" height="48" fill="#3F7BEF"/>
<rect x="16" width="19" height="4" fill="#3F7BEF"/>
<rect x="16" y="134" width="19" height="4" fill="#3F7BEF"/>
<rect x="42" y="134" width="19" height="4" fill="#3F7BEF"/>
<rect x="68" y="134" width="19" height="4" fill="#3F7BEF"/>
<rect x="94" y="134" width="19" height="4" fill="#3F7BEF"/>
<rect x="120" y="134" width="19" height="4" fill="#3F7BEF"/>
<rect x="145" y="134" width="19" height="4" fill="#3F7BEF"/>
<rect x="42" width="19" height="4" fill="#3F7BEF"/>
<rect x="68" width="19" height="4" fill="#3F7BEF"/>
<rect x="94" width="19" height="4" fill="#3F7BEF"/>
<rect x="120" width="19" height="4" fill="#3F7BEF"/>
<rect x="146" width="19" height="4" fill="#3F7BEF"/>
<rect x="171" width="10" height="4" fill="#3F7BEF"/>
<rect x="177" y="10" width="10" height="4" transform="rotate(-90 177 10)" fill="#3F7BEF"/>
<rect x="181" y="128" width="10" height="4" transform="rotate(90 181 128)" fill="#3F7BEF"/>
<rect x="171" y="134" width="10" height="4" fill="#3F7BEF"/>
<rect x="10" y="138" width="10" height="4" transform="rotate(-180 10 138)" fill="#3F7BEF"/>
<rect x="4" y="128" width="10" height="4" transform="rotate(90 4 128)" fill="#3F7BEF"/>
<rect y="10" width="10" height="4" transform="rotate(-90 0 10)" fill="#3F7BEF"/>
<rect x="10" y="4" width="10" height="4" transform="rotate(-180 10 4)" fill="#3F7BEF"/>
<rect x="177" y="38" width="20" height="4" transform="rotate(-90 177 38)" fill="#3F7BEF"/>
<rect y="38" width="20" height="4" transform="rotate(-90 0 38)" fill="#3F7BEF"/>
<rect y="65" width="20" height="4" transform="rotate(-90 0 65)" fill="#3F7BEF"/>
<rect y="93" width="20" height="4" transform="rotate(-90 0 93)" fill="#3F7BEF"/>
<rect y="120" width="20" height="4" transform="rotate(-90 0 120)" fill="#3F7BEF"/>
<rect x="177" y="65" width="20" height="4" transform="rotate(-90 177 65)" fill="#3F7BEF"/>
<rect x="177" y="93" width="20" height="4" transform="rotate(-90 177 93)" fill="#3F7BEF"/>
<rect x="177" y="120" width="20" height="4" transform="rotate(-90 177 120)" fill="#3F7BEF"/>
</svg>
