<svg width="153" height="44" viewBox="0 0 153 44" fill="none" xmlns="http://www.w3.org/2000/svg">
<path d="M39.1539 20.6038H47.5634V28.6913L52.175 20.6038H61.4887L54.3452 31.1946L61.6696 42.9407H51.9942L47.5634 34.4681V42.9407H39.1539V20.6038Z" fill="#006FBA"/>
<path d="M37.074 42.2669C35.7177 43.0372 33.9092 43.6148 31.4677 43.6148C24.5955 43.6148 19.7126 38.8971 19.7126 31.7724C19.7126 23.6849 25.9518 19.9299 31.2869 19.9299C33.0049 19.9299 35.356 20.4113 37.074 21.663V29.4617C35.8081 27.7286 33.9092 27.0547 32.4624 27.0547C29.2975 27.0547 27.8507 29.2691 27.8507 31.9649C27.8507 34.8534 29.8401 36.4901 32.4624 36.4901C34.3613 36.4901 35.9889 35.6236 37.1645 34.4682C37.074 34.4682 37.074 42.2669 37.074 42.2669Z" fill="#006FBA"/>
<path d="M8.40947 28.9802V25.803H9.22329C10.6701 25.803 11.1222 26.5732 11.1222 27.3435C11.1222 28.1137 10.7605 28.8839 9.22329 28.8839L8.40947 28.9802ZM0 20.5076V42.9408H12.4786C18.2657 42.9408 19.5317 38.9933 19.5317 36.6826C19.5317 33.6017 17.5423 31.4835 14.8296 31.0021V30.9058C16.5477 30.3281 18.537 28.7877 18.537 26.1881C18.537 24.4551 17.904 20.5076 11.8456 20.5076C11.8456 20.5076 0 20.5076 0 20.5076ZM8.40947 37.4529V34.0831H9.40413C10.218 34.0831 11.4839 34.2756 11.4839 35.7198C11.4839 37.2603 10.1275 37.4529 9.40413 37.4529H8.40947Z" fill="#006FBA"/>
<path d="M110.86 23.4924L108.419 23.5887L108.238 22.9147L105.887 22.8184V22.337H103.445L103.807 23.2035L104.892 23.3961L104.802 23.011L105.796 23.7812L107.424 24.1663H108.509L111.312 23.7812L110.86 23.4924Z" fill="#52B9E9"/>
<path d="M104.712 21.2779L103.536 21.0854C103.536 21.0854 103.536 20.7002 103.084 20.4114C102.632 20.2188 102.722 20.4114 102.722 20.4114L102.27 20.1225L101.456 20.0263L101.366 19.4486L100.371 19.3523V19.0635L99.5575 18.9672L99.1958 18.6783L99.2862 18.2932L99.1054 18.0044L98.1107 17.523L97.2969 17.2341L96.7543 16.5602L96.1214 15.9825L95.3075 15.116L93.2278 14.3457L91.3289 12.9015L89.7012 12.1313L87.9832 11.1685L85.3609 9.62801L79.6641 6.73961L78.0365 5.96937C77.1322 5.58425 76.9514 5.29541 76.9514 5.19913C76.1376 5.00657 75.8663 4.81401 75.4142 4.42889C74.962 4.42889 73.9674 3.85121 73.6961 3.56236C73.6961 3.56236 71.978 3.08096 71.8876 2.8884C71.8876 2.79212 67.5472 1.15536 67.0047 1.05908C66.643 1.05908 65.5579 0.866521 65.3771 0.770241C65.1962 0.770241 64.5632 0.577681 64.292 0.481401C63.3877 0.385121 62.4835 0.19256 61.5792 0.19256C60.9463 0.19256 60.4942 0.19256 59.9516 0C59.7708 0.0962801 58.4144 -0.0962801 57.8718 0.28884C57.3293 0.28884 56.0634 0.577681 55.7017 0.770241C54.9783 0.770241 53.7123 1.63676 53.2602 1.82932C53.0794 1.9256 52.8081 2.02188 52.6272 2.11816C53.9836 2.59956 55.5208 3.17724 55.5208 3.27352C55.6112 3.3698 57.3293 3.85121 57.3293 3.94749C57.7814 4.33261 58.7761 4.91029 59.2282 4.91029C59.6803 5.39169 59.9516 5.48797 60.7654 5.68053C60.7654 5.77681 60.9463 6.06565 61.8505 6.45077L63.4781 7.22101L69.1749 10.1094L71.7972 11.6499L73.5153 12.6127L75.1429 13.3829L75.7759 13.8643L77.0418 14.3457L79.845 15.3085L83.2811 16.6565L84.547 17.1379L85.813 17.523L86.4459 17.4267L87.0789 17.6193L87.8023 18.2932L88.5257 18.0044L89.0682 18.1007L89.4299 18.6783L89.7012 18.9672L90.3342 19.1597L90.9672 19.256L91.6906 19.0635L92.5948 19.1597L92.8661 19.7374L94.132 19.93L95.9405 20.1225L96.6639 20.4114L97.2969 21.0854L98.2011 21.2779L100.552 21.663L102.632 21.3742L103.988 21.4705L104.712 21.2779Z" fill="#52B9E9"/>
<path d="M85.8126 24.8403H88.3445V25.3217L90.6051 25.5143L90.8764 26.092L93.2274 25.9957L93.77 26.3808L90.9668 26.7659L89.8817 26.6696L88.2541 26.2845L87.2594 25.6106L87.3498 25.8994L86.2647 25.8031L85.8126 24.8403Z" fill="#006FBA"/>
<path d="M86.0837 23.7812C86.0837 23.7812 86.0837 23.3961 85.6316 23.1073C85.1795 22.9147 85.2699 23.1073 85.2699 23.1073L84.8178 22.8184L84.0944 22.6259V22.0482L83.0997 21.9519V21.6631L82.2859 21.5668L81.9242 21.278L82.0146 20.8928L81.8338 20.604L80.8391 20.1226L80.0253 19.8337L79.4828 19.1598L78.8498 18.5821L78.036 17.7156L75.9562 16.9453L74.0573 15.5011L72.4297 14.7309L70.7116 13.7681L68.0893 12.2276L62.3926 9.33922L60.7649 8.56898C59.8607 8.18386 59.6798 7.89502 59.6798 7.79874C58.866 7.60617 58.5947 7.41361 58.1426 7.02849C57.6905 7.02849 56.6958 6.45081 56.4245 6.16197C56.4245 6.16197 54.7065 5.68057 54.6161 5.48801C54.6161 5.39173 50.2757 3.75497 49.7331 3.65869C49.3714 3.65869 48.2864 3.46613 48.1055 3.36985C47.9247 3.36985 47.2917 3.17729 47.0204 3.08101C46.1162 2.98473 45.2119 2.79217 44.3077 2.79217C43.6747 2.79217 43.2226 2.79217 42.68 2.59961C42.4992 2.69589 41.1428 2.50333 40.6003 2.88845C40.0577 2.88845 38.7918 3.17729 38.4301 3.36985C37.7067 3.36985 36.4408 4.23637 35.9886 4.42893C35.6269 4.62149 35.1748 4.81405 34.8131 5.00661C34.6323 5.10289 32.2812 6.35453 32.1004 6.54709C32.1004 6.64337 29.7494 8.08758 29.5685 8.28014C29.4781 8.37642 28.8451 8.66526 28.6643 8.85782C28.4834 9.05038 27.8505 9.62806 27.6696 9.72434C27.5792 9.9169 26.9462 10.2057 26.8558 10.3983C26.6749 10.5909 25.9515 10.976 25.8611 11.0723C25.8611 11.0723 25.409 11.4574 25.1377 11.7462C25.0473 11.9388 24.8664 12.1313 24.776 12.3239C24.5952 12.4202 23.9622 12.8053 23.7814 12.9016C23.7814 13.2867 23.7814 13.9607 23.2388 13.7681C23.2388 13.7681 22.5154 14.2495 22.5154 14.1532C22.6058 14.1532 22.1537 14.8272 21.792 15.3086C21.6112 15.5974 20.5261 15.9825 20.3452 16.2714C19.8931 16.8491 19.441 17.4267 18.9889 18.0044C18.9889 18.0044 18.9889 18.0044 19.0793 18.0044C19.0793 18.1007 19.441 18.1007 19.5314 18.197C19.6218 18.3895 19.3506 18.5821 19.3506 18.8709C19.3506 18.8709 19.3506 18.8709 19.441 18.8709C19.7123 18.8709 20.074 18.4858 20.3452 18.3895C20.5261 18.2933 20.7973 18.197 20.9782 18.1007C21.3399 17.9081 21.7016 17.6193 22.1537 17.4267C24.9569 15.79 27.8505 14.2495 30.6536 12.6127C32.01 11.8425 33.0951 11.1685 34.6323 10.302C34.994 10.1095 36.3503 9.14666 37.345 9.05038C38.6109 8.9541 40.2386 9.33922 40.6003 9.53178C40.962 9.72434 41.9566 10.2057 42.4992 10.302C42.68 10.3983 42.9513 10.5909 43.0417 10.5909C43.1322 10.6871 44.0364 10.7834 44.4885 10.976C44.6694 11.0723 44.8502 11.1685 45.0311 11.2648C45.8449 11.5537 47.8342 12.0351 48.5576 12.2276C49.1906 12.4202 49.5523 12.8053 49.8236 12.9016C50.2757 13.1904 50.3661 13.0941 50.8182 13.2867C51.6321 13.383 52.0842 13.6718 52.0842 13.6718C52.3555 13.7681 52.4459 13.8644 52.7172 13.9607C52.898 13.9607 53.3501 14.3458 53.4405 14.3458C53.6214 14.3458 54.8873 14.8272 55.0682 14.8272C55.249 14.8272 56.1533 15.2123 56.3341 15.3086C56.6054 15.4049 56.8767 15.5011 57.1479 15.5974L59.7703 16.6565L62.5734 17.6193L66.0095 18.9672L67.2755 19.4486L68.5414 19.8337L69.1744 19.7375L69.8074 19.93L70.5308 20.604L71.2542 20.3151L71.7967 20.4114L72.1584 20.9891L72.4297 21.278L73.0626 21.4705L73.6956 21.5668L74.419 21.3742L75.3232 21.4705L75.5945 22.0482L76.8605 22.2408L78.6689 22.4333L79.3923 22.7222L80.0253 23.3961L80.9296 23.5887L83.2806 23.9738L85.3604 23.685L86.7167 23.7812L87.1688 23.3961L86.0837 23.7812Z" fill="#006FBA"/>
<path d="M68.7224 42.0745C68.3607 42.2671 67.8182 42.4596 67.0948 42.4596C65.9193 42.4596 65.1959 42.0745 64.6533 41.4968C63.8395 40.7266 63.5682 39.8601 63.5682 38.801C63.5682 37.5493 64.1108 36.5865 64.6533 36.1051C65.2863 35.4312 66.1905 35.1423 67.0948 35.1423C67.5469 35.1423 68.1799 35.2386 68.7224 35.5275V37.1642C68.0895 36.394 67.3661 36.394 67.0948 36.394C65.7384 36.394 64.8342 37.5493 64.8342 38.801C64.8342 40.3415 66.0097 41.208 67.0948 41.208C67.7278 41.208 68.2703 40.9191 68.632 40.4377C68.7224 40.534 68.7224 42.0745 68.7224 42.0745Z" fill="#006FBA"/>
<path d="M72.5204 42.3633H71.164V36.5865H69.6268V35.4312H73.9672V36.5865H72.43L72.5204 42.3633Z" fill="#006FBA"/>
<path d="M76.6799 36.4901H77.132C77.4033 36.4901 77.765 36.4901 78.0363 36.6826C78.2171 36.8752 78.398 37.0678 78.398 37.4529C78.398 37.7417 78.3075 38.0306 78.0363 38.2231C77.765 38.6082 77.4937 38.6082 77.2225 38.6082H76.6799V36.4901ZM75.3235 35.3347V42.3632H76.6799V39.7636H77.4937C78.3075 39.7636 78.8501 39.571 79.2118 39.1859C79.7543 38.6082 79.7543 37.9343 79.7543 37.6454C79.7543 37.164 79.5735 36.4901 79.0309 35.9124C78.5788 35.431 78.0363 35.3347 77.2225 35.3347H75.3235Z" fill="#006FBA"/>
<path d="M82.5574 39.7637L83.552 37.2604L84.4563 39.7637H82.5574ZM85.4509 42.3633H86.8073L84.0041 35.2385H83.0095L80.1159 42.3633H81.5627L82.1957 40.919H84.9084L85.4509 42.3633Z" fill="#006FBA"/>
<path d="M89.7912 38.7047L87.8018 35.4312H89.339L90.5146 37.5493L91.7805 35.4312H93.3177L91.238 38.7047L93.4986 42.3633H91.9614L90.5146 39.7638L88.9773 42.3633H87.4401L89.7912 38.7047Z" fill="#006FBA"/>
<path d="M98.3818 41.3042C97.0254 41.3042 96.1212 40.3414 96.1212 38.8972C96.1212 37.453 97.0254 36.4902 98.3818 36.4902C99.7382 36.4902 100.642 37.453 100.642 38.8972C100.642 40.2451 99.6478 41.3042 98.3818 41.3042ZM98.3818 35.2385C96.302 35.2385 94.7648 36.779 94.7648 38.8972C94.7648 41.0153 96.2116 42.5558 98.3818 42.5558C100.462 42.5558 101.999 41.0153 101.999 38.8972C101.999 36.779 100.462 35.2385 98.3818 35.2385Z" fill="#006FBA"/>
<path d="M104.982 36.4902H105.344C105.887 36.4902 106.339 36.6827 106.339 37.3567C106.339 38.2232 105.525 38.2232 105.344 38.2232H104.982V36.4902ZM103.717 35.3348V42.3633H105.977C106.52 42.3633 107.153 42.267 107.695 41.7856C108.147 41.4004 108.238 40.8228 108.238 40.3414C108.238 39.9562 108.147 39.4748 107.786 38.9934C107.605 38.8009 107.334 38.6083 106.881 38.512C107.062 38.4158 107.605 38.0306 107.605 37.1641C107.605 36.5864 107.334 36.0088 106.972 35.7199C106.429 35.2385 105.706 35.2385 105.344 35.2385L103.717 35.3348ZM104.982 39.2823H105.435C105.706 39.2823 106.068 39.2823 106.339 39.3786C106.791 39.5711 106.791 39.9562 106.791 40.1488C106.791 40.4376 106.701 40.7265 106.339 40.919C106.068 41.1116 105.706 41.1116 105.435 41.1116H104.892V39.2823H104.982Z" fill="#006FBA"/>
<path d="M113.211 41.3042C111.855 41.3042 110.951 40.3414 110.951 38.8972C110.951 37.453 111.855 36.4902 113.211 36.4902C114.477 36.4902 115.472 37.453 115.472 38.8972C115.472 40.2451 114.568 41.3042 113.211 41.3042ZM113.211 35.2385C111.132 35.2385 109.594 36.779 109.594 38.8972C109.594 41.0153 111.041 42.5558 113.211 42.5558C115.291 42.5558 116.828 41.0153 116.828 38.8972C116.828 36.779 115.291 35.2385 113.211 35.2385Z" fill="#006FBA"/>
<path d="M119.812 35.3348V40.0525L123.52 35.2385H124.424V42.3633H123.068V37.6455L119.36 42.4595H118.456V35.3348C118.546 35.3348 119.812 35.3348 119.812 35.3348ZM120.626 33.1204C120.807 33.698 121.44 33.698 121.53 33.698C121.621 33.698 122.254 33.698 122.435 33.1204L123.339 33.5055C123.068 34.1794 122.435 34.6608 121.53 34.6608C120.626 34.6608 119.993 34.1794 119.722 33.5055L120.626 33.1204Z" fill="#006FBA"/>
<path d="M131.296 36.4901H133.286V41.1115H130.573C130.754 40.919 130.935 40.6301 131.115 40.245C131.206 39.9562 131.387 39.3785 131.387 38.3194V36.4901H131.296ZM130.03 35.3347V38.4157C130.03 39.3785 129.94 39.8599 129.759 40.245C129.578 40.7264 129.216 41.2078 128.674 41.2078V43.9999H129.849V42.4595H134.009V43.9999H135.185V41.2078H134.461V35.431H130.03V35.3347Z" fill="#006FBA"/>
<path d="M139.886 41.3042C138.53 41.3042 137.626 40.3414 137.626 38.8972C137.626 37.453 138.53 36.4902 139.886 36.4902C141.243 36.4902 142.147 37.453 142.147 38.8972C142.147 40.2451 141.243 41.3042 139.886 41.3042ZM139.886 35.2385C137.807 35.2385 136.269 36.779 136.269 38.8972C136.269 41.0153 137.716 42.5558 139.886 42.5558C141.966 42.5558 143.503 41.0153 143.503 38.8972C143.503 36.779 142.057 35.2385 139.886 35.2385Z" fill="#006FBA"/>
<path d="M144.86 42.3633L146.126 35.2385H147.03L148.838 39.7637L150.737 35.2385H151.642L152.817 42.3633H151.461L150.828 38.0307L149.019 42.4595H148.658L146.849 38.0307L146.126 42.3633H144.86Z" fill="#006FBA"/>
</svg>
