<svg width="53" height="20" viewBox="0 0 53 20" fill="none" xmlns="http://www.w3.org/2000/svg">
<path fill-rule="evenodd" clip-rule="evenodd" d="M33.6069 1.03467H40.7785V7.48963L44.748 1.03467H52.6107L46.5157 9.53786L52.7907 18.9652H44.5437L40.7785 12.1503V18.9652H33.6069V1.03467H33.6069Z" fill="#0172B7"/>
<path fill-rule="evenodd" clip-rule="evenodd" d="M31.7961 18.4021C30.6688 18.9884 29.1318 19.5019 26.9809 19.5019C21.1409 19.5019 16.9915 15.7378 16.9915 10.0005C16.9915 3.49476 22.3191 0.498047 26.8782 0.498047C28.3379 0.498047 30.3607 0.856901 31.7961 1.85507V8.13115C30.6942 6.77413 29.081 6.2353 27.8266 6.2353C25.1623 6.2353 23.8815 8.00307 23.8815 10.1794C23.8815 12.4584 25.5465 13.7646 27.8001 13.7646C29.3879 13.7646 30.7715 13.048 31.7961 12.1271V18.4021Z" fill="#0172B7"/>
<path fill-rule="evenodd" clip-rule="evenodd" d="M0.209229 0.919922V18.8483H10.8136C15.7824 18.8483 16.8579 15.6727 16.8579 13.8552C16.8579 11.4217 15.1928 9.65388 12.8873 9.27073V9.21994C14.3735 8.7838 16.0132 7.50296 16.0132 5.47903C16.0132 4.09771 15.4754 0.919922 10.3267 0.919922H0.209229ZM7.38079 7.73263V5.22396H8.04771C9.30204 5.22396 9.6355 5.86438 9.6355 6.4783C9.6355 7.09332 9.30204 7.73373 8.04771 7.73373H7.38079V7.73263ZM7.38079 11.8556V14.5464H8.25198C8.91779 14.5464 10.0451 14.4427 10.0451 13.1872C10.0451 11.9848 8.94319 11.8556 8.25198 11.8556H7.38079Z" fill="#0172B7"/>
</svg>
